<svg transform="scale(2)" version="1.1" id="_x30_569_x5F_Ordering_x5F_Groceries_x5F_Online" xmlns="http://www.w3.org/2000/svg" xmlns:xlink="http://www.w3.org/1999/xlink" x="0px" y="0px" width="500px" height="500px" viewBox="0 0 500 500" xml:space="preserve" class="show_show__wrapper__graphic__5Waiy "><title>React</title><style type="text/css">
	.st0{fill:#000001;}
	.st1{fill:#005596;}
	.st2{fill:#FFDC32;}
	.st3{fill:#FFB0CC;}
	.st4{fill:#FFFFFF;}
</style><g id="board"><path class="st0" d="M410.34,149.22L224.87,70.41V52.23l209,88.68v267.32l-17.14-7.34l-0.06-242.1
		C416.68,154.62,414.18,150.85,410.34,149.22z"></path><path class="st1" d="M207.68,92.84l208.98,88.92c0,0-0.21-23.8-0.22-23.9c-0.34-1.81-0.92-3.59-1.92-5.14s-2.44-2.84-4.17-3.47
		c0,0-188.91-80.13-189.01-80.02c-3.08-0.84-6.53-0.23-9.14,1.6c-2.61,1.84-4.34,4.88-4.59,8.06L207.68,92.84z"></path><polygon class="st2" points="366.95,265.11 329.34,279.96 329.34,329.44 373.47,348.13 389.58,341.9 392.65,290.81 	"></polygon><polygon class="st2" points="318.13,245.23 280.52,260.07 280.52,309.55 324.65,328.24 340.76,322.02 343.83,270.92 	"></polygon><polygon class="st2" points="269.91,223.9 232.3,238.75 232.3,288.23 276.44,306.92 292.55,300.69 295.61,249.6 	"></polygon><path class="st3" d="M363.74,252.31l32.47,14.01l9.69-7.07c0,0-0.58-31.94-0.97-31.87c-0.28-0.84-0.98-1.53-1.83-1.8
		c-0.41-0.13-0.86-0.17-1.26-0.33c-0.4-0.16-0.79-0.49-0.82-0.92l-2.54-6.83c0,0-27.33-10.22-27.44-10.07
		c-0.77,0.23-1.6,0.49-2.06,1.15c-0.36,0.5-0.43,1.15-0.44,1.77c-0.02,1.41,0.26,2.82,1.03,4.15c-1.55,0.08-3.07,0.75-4.16,1.86
		c-1.09,1.11-1.76,2.63-1.82,4.18L363.74,252.31z"></path><path class="st3" d="M318.09,233.22l32.47,14.01l9.69-7.07c0,0-0.58-31.94-0.97-31.87c-0.28-0.84-0.98-1.53-1.83-1.8
		c-0.41-0.13-0.86-0.17-1.26-0.33c-0.4-0.16-0.79-0.49-0.82-0.92l-2.54-6.83c0,0-27.33-10.22-27.44-10.07
		c-0.77,0.23-1.6,0.49-2.06,1.15c-0.36,0.5-0.43,1.15-0.44,1.77c-0.02,1.41,0.26,2.82,1.03,4.15c-1.55,0.08-3.07,0.75-4.16,1.86
		c-1.09,1.11-1.76,2.63-1.82,4.18L318.09,233.22z"></path><path class="st3" d="M270.08,214l32.47,14.01l9.69-7.07c0,0-0.58-31.94-0.97-31.87c-0.28-0.84-0.98-1.53-1.83-1.8
		c-0.41-0.13-0.86-0.17-1.26-0.33c-0.4-0.16-0.79-0.49-0.82-0.92l-2.54-6.83c0,0-27.33-10.22-27.44-10.07
		c-0.77,0.23-1.6,0.49-2.06,1.15c-0.36,0.5-0.43,1.15-0.44,1.77c-0.02,1.41,0.26,2.82,1.03,4.15c-1.55,0.08-3.07,0.75-4.16,1.86
		c-1.09,1.11-1.76,2.63-1.82,4.18L270.08,214z"></path><path class="st3" d="M223.88,194.41l32.47,14.01l9.69-7.07c0,0-0.58-31.94-0.97-31.87c-0.28-0.84-0.98-1.53-1.83-1.8
		c-0.41-0.13-0.86-0.17-1.26-0.33c-0.4-0.16-0.79-0.49-0.82-0.92l-2.54-6.83c0,0-27.33-10.22-27.44-10.07
		c-0.77,0.23-1.6,0.49-2.06,1.15c-0.36,0.5-0.43,1.15-0.44,1.77c-0.02,1.41,0.26,2.82,1.03,4.15c-1.55,0.08-3.07,0.75-4.16,1.86
		c-1.09,1.11-1.76,2.63-1.82,4.18L223.88,194.41z"></path><ellipse class="st0" cx="234.75" cy="89.99" rx="4.62" ry="9.12"></ellipse><path class="st0" d="M416.67,419.73c-0.07,0-0.13-0.01-0.2-0.04l-209-89.49c-0.18-0.08-0.3-0.26-0.3-0.46V79.97
		c0-3.9,1.94-7.51,5.19-9.66c3.25-2.15,7.33-2.53,10.92-1l186.84,79.28c4.29,1.82,7.06,6,7.06,10.66v259.98
		c0,0.17-0.08,0.33-0.22,0.42C416.87,419.7,416.77,419.73,416.67,419.73z M208.17,329.41l208,89.06V159.25
		c0-4.26-2.53-8.08-6.45-9.74L222.89,70.23c-3.28-1.39-7.01-1.05-9.97,0.92c-2.97,1.97-4.74,5.26-4.74,8.82V329.41z"></path><path class="st0" d="M358.14,184.43c-1.33,0-2.69-0.26-4-0.82l-91.57-38.92c-5.2-2.21-7.63-8.24-5.42-13.44v0
		c2.21-5.2,8.24-7.64,13.44-5.42l91.57,38.92c5.2,2.21,7.63,8.24,5.42,13.44C365.93,182.08,362.13,184.43,358.14,184.43z
		 M258.07,131.64c-1.99,4.69,0.2,10.14,4.9,12.13l91.57,38.92c4.7,1.99,10.14-0.2,12.13-4.9c1.99-4.69-0.2-10.14-4.9-12.13
		l-91.57-38.92C265.5,124.75,260.06,126.95,258.07,131.64L258.07,131.64z"></path><path class="st0" d="M353.45,175.75c-3.03,0-5.5-2.47-5.5-5.5s2.47-5.5,5.5-5.5s5.5,2.47,5.5,5.5S356.48,175.75,353.45,175.75z
		 M353.45,165.75c-2.48,0-4.5,2.02-4.5,4.5s2.02,4.5,4.5,4.5s4.5-2.02,4.5-4.5S355.93,165.75,353.45,165.75z"></path><path class="st0" d="M358.7,180.48c-0.17,0-0.34-0.09-0.43-0.25l-2.99-5.06c-0.14-0.24-0.06-0.54,0.18-0.69
		c0.24-0.14,0.54-0.06,0.69,0.18l2.99,5.06c0.14,0.24,0.06,0.54-0.18,0.69C358.87,180.46,358.79,180.48,358.7,180.48z"></path><path class="st0" d="M400.69,276.67c-0.07,0-0.13-0.01-0.2-0.04l-180.31-76.68c-0.25-0.11-0.37-0.4-0.26-0.66
		c0.11-0.25,0.4-0.37,0.66-0.26l180.31,76.68c0.25,0.11,0.37,0.4,0.26,0.66C401.07,276.55,400.88,276.67,400.69,276.67z"></path><path class="st0" d="M400.69,365.17c-0.07,0-0.13-0.01-0.2-0.04l-180.31-76.68c-0.25-0.11-0.37-0.4-0.26-0.66
		c0.11-0.25,0.4-0.37,0.66-0.26l180.31,76.68c0.25,0.11,0.37,0.4,0.26,0.66C401.07,365.05,400.88,365.17,400.69,365.17z"></path><path class="st0" d="M220.25,93.36c-2.87,0-5.12-4.23-5.12-9.62s2.25-9.62,5.12-9.62s5.12,4.23,5.12,9.62
		S223.12,93.36,220.25,93.36z M220.25,75.11c-2.24,0-4.12,3.95-4.12,8.62s1.89,8.62,4.12,8.62s4.12-3.95,4.12-8.62
		S222.48,75.11,220.25,75.11z"></path><path class="st0" d="M249.52,105.86c-2.87,0-5.12-4.23-5.12-9.62s2.25-9.62,5.12-9.62s5.12,4.23,5.12,9.62
		S252.39,105.86,249.52,105.86z M249.52,87.61c-2.24,0-4.12,3.95-4.12,8.62s1.89,8.62,4.12,8.62c2.24,0,4.12-3.95,4.12-8.62
		S251.75,87.61,249.52,87.61z"></path><path class="st0" d="M416.67,182.36c-0.07,0-0.13-0.01-0.2-0.04l-209-89c-0.25-0.11-0.37-0.4-0.26-0.66
		c0.11-0.25,0.4-0.37,0.66-0.26l209,89c0.25,0.11,0.37,0.4,0.26,0.66C417.05,182.25,416.87,182.36,416.67,182.36z"></path><path class="st0" d="M376.75,159.54c-0.07,0-0.14-0.01-0.2-0.04c-14.89-6.56-14.97-6.86-15.04-7.16c-0.01-0.06-0.02-0.12-0.01-0.18
		c0.12-1.67,1.06-3.28,2.46-4.2c1.76-1.15,4.17-1.25,6.31-0.25c1.75,0.82,3.3,2.35,4.49,4.41c1.07,1.86,1.72,3.9,2.48,6.79
		c0.05,0.19-0.01,0.38-0.16,0.51C376.98,159.5,376.87,159.54,376.75,159.54z M362.52,151.98c1.31,0.74,8.45,3.96,13.48,6.18
		c-0.63-2.29-1.23-4-2.11-5.54c-0.75-1.31-2.07-3.07-4.04-4c-1.8-0.84-3.89-0.77-5.33,0.18
		C363.43,149.5,362.68,150.71,362.52,151.98z"></path><path class="st0" d="M403.6,169.55c-0.06,0-0.12-0.01-0.18-0.03l-13.36-5.19c-0.13-0.05-0.24-0.16-0.29-0.3l-4.43-12.29
		c-0.07-0.19-0.02-0.39,0.12-0.53c0.14-0.14,0.35-0.18,0.53-0.1l17.06,6.87l-0.01-3.3c0-0.17,0.08-0.32,0.22-0.42
		c0.14-0.09,0.31-0.11,0.47-0.05l8.61,3.48c0.26,0.1,0.38,0.4,0.28,0.65c-0.1,0.26-0.4,0.38-0.65,0.28l-7.92-3.2l0.06,13.63
		c0,0.17-0.08,0.32-0.22,0.41C403.8,169.52,403.7,169.55,403.6,169.55z M390.63,163.47l12.47,4.85l-0.04-9.26l-16.4-6.61
		L390.63,163.47z"></path><path class="st0" d="M369.97,145.76c-1.68,0-3-1.87-3-4.25s1.32-4.25,3-4.25s3,1.87,3,4.25S371.65,145.76,369.97,145.76z
		 M369.97,138.26c-1.08,0-2,1.49-2,3.25s0.92,3.25,2,3.25s2-1.49,2-3.25S371.05,138.26,369.97,138.26z"></path><path class="st0" d="M373.44,348.56c-0.07,0-0.13-0.01-0.19-0.04l-44.31-18.73c-0.19-0.08-0.31-0.26-0.31-0.46v-49.26
		c0-0.21,0.13-0.39,0.32-0.47l37.46-14.67c0.26-0.1,0.55,0.03,0.65,0.28c0.1,0.26-0.03,0.55-0.28,0.65l-37.14,14.54V329l43.82,18.52
		l15.67-5.99c0.26-0.1,0.55,0.03,0.65,0.29c0.1,0.26-0.03,0.55-0.29,0.65l-15.86,6.06C373.57,348.55,373.5,348.56,373.44,348.56z"></path><path class="st0" d="M373.29,346.73c-0.28,0-0.5-0.22-0.5-0.5V298.9l-42.25-17.49c-0.25-0.11-0.38-0.4-0.27-0.65
		c0.11-0.25,0.4-0.38,0.65-0.27l42.56,17.61c0.19,0.08,0.31,0.26,0.31,0.46v47.66C373.79,346.5,373.56,346.73,373.29,346.73z"></path><path class="st0" d="M374.56,298.35c-0.2,0-0.39-0.12-0.47-0.32c-0.1-0.26,0.03-0.55,0.28-0.65l17.93-7.01
		c0.26-0.1,0.55,0.03,0.65,0.28c0.1,0.26-0.03,0.55-0.28,0.65l-17.93,7.01C374.68,298.34,374.62,298.35,374.56,298.35z"></path><path class="st0" d="M352.24,301.22c-0.18,0-0.35-0.1-0.44-0.26l-2.34-4.39l-2.32,1.99c-0.13,0.11-0.32,0.15-0.49,0.09
		c-0.17-0.06-0.29-0.2-0.33-0.37l-0.65-3.17l-1.93,1.33c-0.15,0.11-0.35,0.12-0.52,0.03c-0.17-0.09-0.27-0.26-0.27-0.44v-9.64
		c0-0.2,0.12-0.38,0.31-0.46l32.76-13.55c0.26-0.11,0.55,0.02,0.65,0.27c0.11,0.26-0.02,0.55-0.27,0.65l-32.45,13.42v8.36l1.77-1.21
		c0.14-0.09,0.31-0.12,0.47-0.05c0.16,0.06,0.27,0.2,0.3,0.36l0.63,3.07l2.14-1.84c0.12-0.1,0.27-0.14,0.42-0.11
		c0.15,0.03,0.28,0.12,0.35,0.26l1.69,3.17v-8.6c0-0.2,0.12-0.39,0.31-0.46l27.82-11.24c0.25-0.1,0.55,0.02,0.65,0.28
		c0.1,0.26-0.02,0.55-0.28,0.65l-27.5,11.11v10.26c0,0.23-0.16,0.43-0.38,0.49C352.32,301.21,352.28,301.22,352.24,301.22z"></path><path class="st0" d="M325.31,328.56c-0.07,0-0.13-0.01-0.19-0.04l-44.31-18.73c-0.19-0.08-0.31-0.26-0.31-0.46v-49.26
		c0-0.21,0.13-0.39,0.32-0.47l37.46-14.67c0.26-0.1,0.55,0.03,0.65,0.28s-0.03,0.55-0.28,0.65l-37.14,14.54V309l43.81,18.52
		l3.62-1.64c0.25-0.11,0.55,0,0.66,0.25c0.11,0.25,0,0.55-0.25,0.66l-3.82,1.73C325.45,328.55,325.38,328.56,325.31,328.56z"></path><path class="st0" d="M325.15,326.73c-0.28,0-0.5-0.22-0.5-0.5V278.9l-42.25-17.49c-0.25-0.11-0.38-0.4-0.27-0.65
		c0.11-0.25,0.4-0.38,0.65-0.27l42.56,17.61c0.19,0.08,0.31,0.26,0.31,0.46v47.66C325.65,326.5,325.42,326.73,325.15,326.73z"></path><path class="st0" d="M326.42,278.35c-0.2,0-0.39-0.12-0.47-0.32c-0.1-0.26,0.03-0.55,0.28-0.65l17.93-7.01
		c0.26-0.1,0.55,0.03,0.65,0.28c0.1,0.26-0.03,0.55-0.28,0.65l-17.93,7.01C326.55,278.34,326.48,278.35,326.42,278.35z"></path><path class="st0" d="M304.11,281.22c-0.18,0-0.35-0.1-0.44-0.26l-2.34-4.39l-2.32,1.99c-0.13,0.11-0.32,0.15-0.49,0.09
		c-0.17-0.06-0.29-0.2-0.33-0.37l-0.65-3.17l-1.93,1.33c-0.15,0.11-0.35,0.12-0.52,0.03c-0.17-0.09-0.27-0.26-0.27-0.44v-9.64
		c0-0.2,0.12-0.38,0.31-0.46l32.76-13.55c0.26-0.11,0.55,0.02,0.65,0.27c0.11,0.26-0.02,0.55-0.27,0.65l-32.45,13.42v8.36l1.77-1.22
		c0.14-0.09,0.31-0.11,0.47-0.05c0.16,0.06,0.27,0.2,0.3,0.36l0.63,3.07l2.14-1.84c0.12-0.1,0.27-0.14,0.42-0.11
		c0.15,0.03,0.28,0.12,0.35,0.26l1.69,3.17v-8.6c0-0.2,0.12-0.39,0.31-0.46l27.82-11.24c0.25-0.1,0.55,0.02,0.65,0.28
		c0.1,0.26-0.02,0.55-0.28,0.65l-27.5,11.11v10.26c0,0.23-0.16,0.43-0.38,0.49C304.19,281.21,304.15,281.22,304.11,281.22z"></path><path class="st0" d="M276.59,307.24c-0.07,0-0.13-0.01-0.19-0.04l-44.31-18.73c-0.19-0.08-0.31-0.26-0.31-0.46v-49.26
		c0-0.21,0.13-0.39,0.32-0.47l37.46-14.67c0.26-0.1,0.55,0.03,0.65,0.28s-0.03,0.55-0.28,0.65l-37.14,14.54v48.58l43.82,18.52
		l4.21-1.75c0.26-0.1,0.55,0.01,0.65,0.27c0.11,0.25-0.01,0.55-0.27,0.65l-4.4,1.83C276.72,307.22,276.66,307.24,276.59,307.24z"></path><path class="st0" d="M276.43,305.4c-0.28,0-0.5-0.22-0.5-0.5v-47.33l-42.25-17.49c-0.25-0.11-0.38-0.4-0.27-0.65
		c0.11-0.25,0.4-0.38,0.65-0.27l42.56,17.61c0.19,0.08,0.31,0.26,0.31,0.46v47.66C276.93,305.18,276.71,305.4,276.43,305.4z"></path><path class="st0" d="M277.71,257.02c-0.2,0-0.39-0.12-0.47-0.32c-0.1-0.26,0.03-0.55,0.28-0.65l17.93-7.01
		c0.26-0.1,0.55,0.03,0.65,0.28c0.1,0.26-0.03,0.55-0.28,0.65l-17.93,7.01C277.83,257.01,277.77,257.02,277.71,257.02z"></path><path class="st0" d="M255.39,259.89c-0.18,0-0.35-0.1-0.44-0.26l-2.34-4.39l-2.32,1.99c-0.13,0.11-0.32,0.15-0.49,0.09
		c-0.17-0.06-0.29-0.2-0.33-0.37l-0.65-3.17l-1.93,1.33c-0.15,0.11-0.35,0.12-0.52,0.03c-0.16-0.09-0.27-0.26-0.27-0.44v-9.64
		c0-0.2,0.12-0.38,0.31-0.46l32.76-13.55c0.26-0.11,0.55,0.02,0.65,0.27c0.11,0.25-0.02,0.55-0.27,0.65l-32.45,13.42v8.36l1.77-1.21
		c0.14-0.09,0.32-0.11,0.47-0.05c0.16,0.06,0.27,0.2,0.3,0.36l0.63,3.07l2.14-1.84c0.12-0.1,0.27-0.14,0.42-0.11
		c0.15,0.03,0.28,0.12,0.35,0.26l1.69,3.17v-8.6c0-0.2,0.12-0.39,0.31-0.46l27.82-11.24c0.25-0.1,0.55,0.02,0.65,0.28
		c0.1,0.26-0.02,0.55-0.28,0.65l-27.5,11.11v10.26c0,0.23-0.16,0.43-0.38,0.49C255.47,259.89,255.43,259.89,255.39,259.89z"></path><path class="st0" d="M396.17,266.8c-0.07,0-0.13-0.01-0.2-0.04l-32.45-14.01c-0.18-0.08-0.3-0.26-0.3-0.46l-0.2-31.3
		c-0.02-1.74,0.65-3.47,1.83-4.75c0.99-1.07,2.32-1.8,3.74-2.09c-0.74-1.2-1.04-2.55-0.84-3.88c0.23-1.5,1.28-3.24,3.06-3.5l0,0.03
		c0.69,0.06,4.18,1.33,27.9,10.44c0.13,0.05,0.24,0.16,0.29,0.3l2.53,6.93c0.74,0.13,1.55,0.31,2.28,0.69
		c0.97,0.52,1.63,1.37,1.77,2.28l-0.06,0.01c0.21,1.15,0.34,6.32,0.68,31.81c0,0.16-0.07,0.31-0.2,0.41l-9.52,7.04
		C396.38,266.77,396.27,266.8,396.17,266.8z M364.21,251.96l31.89,13.77l9.09-6.71c-0.16-12.12-0.45-30.14-0.58-31.35
		c-0.01-0.02-0.01-0.05-0.02-0.08c-0.09-0.6-0.55-1.18-1.25-1.54c-0.68-0.36-1.49-0.5-2.27-0.64c-0.18-0.03-0.32-0.15-0.38-0.32
		l-2.55-6.98c-10.43-4.01-25.92-9.92-27.28-10.32c-1.17,0.22-1.96,1.48-2.13,2.64c-0.2,1.34,0.19,2.65,1.13,3.8
		c0.12,0.14,0.15,0.34,0.07,0.51s-0.24,0.29-0.42,0.3c-1.49,0.1-2.92,0.79-3.93,1.88c-1.01,1.09-1.58,2.57-1.57,4.06L364.21,251.96z
		"></path><path class="st0" d="M396.11,264.86c-0.28,0-0.5-0.22-0.5-0.5c0,0,0-7.73,0.01-15.47c0.01-3.87,0.02-7.73,0.03-10.64
		c0.01-2.71,0.02-4.02,0.08-4.67c0-0.01-0.01-0.02-0.01-0.03l0.01,0c0-0.04,0.01-0.08,0.01-0.11l-0.04,0
		c-0.05-1.57,0.28-3.15,0.97-4.56c0.14-0.29,0.3-0.58,0.46-0.87c0.26-0.47,0.51-0.92,0.69-1.39c0.45-1.23,0.4-2.56,0.17-3.89
		c-0.13,0.27-0.29,0.52-0.49,0.75c-0.43,0.49-1.06,0.8-1.7,0.83c-0.48,0.02-0.91-0.11-1.25-0.38l-23.73-8.42
		c-0.26-0.09-0.4-0.38-0.3-0.64c0.09-0.26,0.38-0.4,0.64-0.3l23.81,8.45c0.06,0.02,0.12,0.06,0.17,0.1
		c0.19,0.17,0.43,0.19,0.61,0.19c0.36-0.02,0.76-0.22,1.01-0.5c0.5-0.57,0.67-1.42,0.82-2.18c0.04-0.23,0.24-0.4,0.48-0.4
		c0.24,0.02,0.44,0.15,0.5,0.38c0.53,2.07,0.98,4.27,0.21,6.35c-0.2,0.55-0.48,1.05-0.75,1.53c-0.15,0.27-0.3,0.54-0.44,0.82
		c-0.62,1.27-0.92,2.68-0.87,4.09c0,0.04,0,0.08-0.01,0.12c-0.07,1.26-0.09,22.61-0.09,30.83
		C396.61,264.64,396.38,264.86,396.11,264.86z"></path><path class="st0" d="M400.11,255.52c-0.28,0-0.5-0.22-0.5-0.5V231c0-0.28,0.22-0.5,0.5-0.5s0.5,0.22,0.5,0.5v24.02
		C400.61,255.3,400.39,255.52,400.11,255.52z"></path><path class="st0" d="M398.11,262.5c-0.07,0-0.13-0.01-0.2-0.04c-0.25-0.11-0.37-0.4-0.26-0.66l1.88-4.37
		c0.09-0.21,0.31-0.33,0.54-0.3l3.94,0.61c0.27,0.04,0.46,0.3,0.42,0.57s-0.29,0.46-0.57,0.42l-3.56-0.55l-1.73,4.01
		C398.49,262.38,398.3,262.5,398.11,262.5z"></path><path class="st0" d="M350.67,247.8c-0.07,0-0.13-0.01-0.2-0.04l-32.45-14.01c-0.18-0.08-0.3-0.26-0.3-0.46l-0.2-31.3
		c-0.02-1.74,0.65-3.47,1.83-4.75c0.99-1.07,2.32-1.8,3.74-2.09c-0.74-1.2-1.04-2.55-0.84-3.88c0.23-1.5,1.28-3.24,3.06-3.5l0,0.03
		c0.69,0.06,4.18,1.33,27.9,10.44c0.13,0.05,0.24,0.16,0.29,0.3l2.53,6.93c0.74,0.13,1.55,0.31,2.28,0.69
		c0.97,0.52,1.63,1.37,1.77,2.28l-0.06,0.01c0.21,1.15,0.34,6.32,0.68,31.81c0,0.16-0.07,0.31-0.2,0.41l-9.52,7.04
		C350.88,247.77,350.77,247.8,350.67,247.8z M318.71,232.96l31.89,13.77l9.09-6.71c-0.16-12.12-0.45-30.14-0.58-31.35
		c-0.01-0.02-0.01-0.05-0.02-0.08c-0.09-0.6-0.55-1.18-1.25-1.54c-0.68-0.36-1.49-0.5-2.27-0.64c-0.18-0.03-0.32-0.15-0.38-0.32
		l-2.55-6.98c-10.43-4.01-25.92-9.92-27.28-10.32c-1.17,0.22-1.96,1.48-2.13,2.64c-0.2,1.34,0.19,2.65,1.13,3.8
		c0.12,0.14,0.15,0.34,0.07,0.51s-0.24,0.29-0.42,0.3c-1.49,0.1-2.92,0.79-3.93,1.88c-1.01,1.09-1.58,2.57-1.57,4.06L318.71,232.96z
		"></path><path class="st0" d="M350.61,245.86c-0.28,0-0.5-0.22-0.5-0.5c0,0,0-7.73,0.01-15.47c0.01-3.87,0.02-7.73,0.03-10.64
		c0.01-2.71,0.02-4.02,0.08-4.67c0-0.01-0.01-0.02-0.01-0.03l0.01,0c0-0.04,0.01-0.08,0.01-0.11l-0.04,0
		c-0.05-1.57,0.28-3.15,0.97-4.56c0.14-0.29,0.3-0.58,0.46-0.87c0.26-0.47,0.51-0.92,0.69-1.39c0.45-1.23,0.4-2.56,0.17-3.89
		c-0.13,0.27-0.29,0.52-0.49,0.75c-0.43,0.49-1.06,0.8-1.7,0.83c-0.48,0.02-0.91-0.11-1.25-0.38l-23.73-8.42
		c-0.26-0.09-0.4-0.38-0.3-0.64c0.09-0.26,0.38-0.4,0.64-0.3l23.81,8.45c0.06,0.02,0.12,0.06,0.17,0.1
		c0.19,0.17,0.43,0.19,0.61,0.19c0.36-0.02,0.76-0.22,1.01-0.5c0.5-0.57,0.67-1.42,0.82-2.18c0.04-0.23,0.24-0.4,0.48-0.4
		c0.25,0.01,0.44,0.15,0.5,0.38c0.53,2.07,0.98,4.27,0.21,6.35c-0.2,0.55-0.48,1.05-0.75,1.53c-0.15,0.27-0.3,0.54-0.44,0.82
		c-0.62,1.27-0.92,2.68-0.87,4.09c0,0.04,0,0.08-0.01,0.12c-0.07,1.26-0.09,22.61-0.09,30.83
		C351.11,245.64,350.88,245.86,350.61,245.86z"></path><path class="st0" d="M354.61,236.52c-0.28,0-0.5-0.22-0.5-0.5V212c0-0.28,0.22-0.5,0.5-0.5s0.5,0.22,0.5,0.5v24.02
		C355.11,236.3,354.89,236.52,354.61,236.52z"></path><path class="st0" d="M352.61,243.5c-0.07,0-0.13-0.01-0.2-0.04c-0.25-0.11-0.37-0.4-0.26-0.66l1.88-4.37
		c0.09-0.21,0.31-0.33,0.54-0.3l3.94,0.61c0.27,0.04,0.46,0.3,0.42,0.57s-0.3,0.46-0.57,0.42l-3.56-0.55l-1.73,4.01
		C352.99,243.38,352.8,243.5,352.61,243.5z"></path><path class="st0" d="M302.65,228.59c-0.07,0-0.13-0.01-0.2-0.04L270,214.53c-0.18-0.08-0.3-0.26-0.3-0.46l-0.2-31.3
		c-0.02-1.74,0.65-3.47,1.83-4.75c0.99-1.07,2.32-1.8,3.74-2.09c-0.74-1.2-1.04-2.55-0.84-3.88c0.23-1.51,1.28-3.24,3.06-3.5l0,0.03
		c0.69,0.06,4.17,1.33,27.9,10.44c0.13,0.05,0.24,0.16,0.29,0.3l2.52,6.93c0.74,0.13,1.55,0.31,2.28,0.69
		c0.97,0.52,1.63,1.37,1.77,2.28l-0.06,0.01c0.21,1.15,0.34,6.33,0.68,31.81c0,0.16-0.07,0.31-0.2,0.41l-9.52,7.04
		C302.86,228.55,302.76,228.59,302.65,228.59z M270.7,213.74l31.89,13.77l9.09-6.71c-0.16-12.12-0.45-30.14-0.58-31.35
		c-0.01-0.02-0.01-0.05-0.02-0.08c-0.09-0.6-0.55-1.17-1.25-1.54c-0.68-0.36-1.49-0.5-2.27-0.64c-0.18-0.03-0.32-0.15-0.38-0.32
		l-2.54-6.98c-10.43-4.01-25.92-9.92-27.28-10.32c-1.17,0.22-1.96,1.48-2.13,2.64c-0.2,1.34,0.19,2.65,1.13,3.8
		c0.12,0.15,0.15,0.34,0.07,0.51c-0.07,0.17-0.24,0.29-0.42,0.3c-1.49,0.1-2.92,0.79-3.93,1.88c-1.01,1.09-1.58,2.58-1.57,4.06
		L270.7,213.74z"></path><path class="st0" d="M302.59,226.64c-0.28,0-0.5-0.22-0.5-0.5c0,0,0-7.73,0.01-15.47c0.01-3.87,0.01-7.73,0.03-10.64
		c0.01-2.71,0.02-4.02,0.08-4.67c0-0.01-0.01-0.02-0.01-0.03l0.01,0c0-0.04,0.01-0.08,0.01-0.11l-0.04,0
		c-0.05-1.57,0.28-3.15,0.97-4.56c0.14-0.3,0.3-0.58,0.46-0.87c0.26-0.47,0.51-0.92,0.68-1.39c0.46-1.23,0.4-2.56,0.17-3.89
		c-0.13,0.26-0.29,0.52-0.49,0.75c-0.43,0.49-1.06,0.8-1.7,0.83c-0.48,0.02-0.91-0.11-1.25-0.37l-23.73-8.42
		c-0.26-0.09-0.4-0.38-0.3-0.64c0.09-0.26,0.38-0.4,0.64-0.3l23.81,8.45c0.06,0.02,0.12,0.06,0.17,0.1c0.19,0.17,0.44,0.2,0.61,0.19
		c0.36-0.02,0.76-0.22,1.01-0.5c0.5-0.57,0.67-1.42,0.82-2.17c0.04-0.23,0.24-0.4,0.48-0.4c0.25,0,0.44,0.15,0.5,0.38
		c0.53,2.08,0.98,4.28,0.21,6.35c-0.2,0.54-0.48,1.04-0.75,1.53c-0.15,0.27-0.3,0.55-0.44,0.83c-0.62,1.27-0.92,2.68-0.87,4.09
		c0,0.04,0,0.08-0.01,0.12c-0.07,1.27-0.09,22.61-0.09,30.83C303.09,226.42,302.87,226.64,302.59,226.64z"></path><path class="st0" d="M306.59,217.3c-0.28,0-0.5-0.22-0.5-0.5v-24.02c0-0.28,0.22-0.5,0.5-0.5s0.5,0.22,0.5,0.5v24.02
		C307.09,217.08,306.87,217.3,306.59,217.3z"></path><path class="st0" d="M304.59,224.28c-0.07,0-0.13-0.01-0.2-0.04c-0.25-0.11-0.37-0.4-0.26-0.66l1.88-4.37
		c0.09-0.21,0.31-0.33,0.54-0.3l3.94,0.61c0.27,0.04,0.46,0.3,0.42,0.57c-0.04,0.27-0.29,0.46-0.57,0.42l-3.56-0.55l-1.73,4.01
		C304.97,224.17,304.79,224.28,304.59,224.28z"></path><path class="st0" d="M256.46,209c-0.07,0-0.13-0.01-0.2-0.04l-32.45-14.01c-0.18-0.08-0.3-0.26-0.3-0.46l-0.2-31.3
		c-0.02-1.74,0.65-3.47,1.83-4.75c0.99-1.07,2.32-1.8,3.74-2.09c-0.74-1.2-1.04-2.55-0.84-3.88c0.23-1.51,1.28-3.24,3.06-3.5l0,0.03
		c0.69,0.06,4.17,1.33,27.9,10.44c0.13,0.05,0.24,0.16,0.29,0.3l2.52,6.93c0.74,0.13,1.55,0.31,2.28,0.69
		c0.97,0.52,1.63,1.37,1.77,2.28l-0.06,0.01c0.21,1.15,0.34,6.33,0.68,31.81c0,0.16-0.07,0.31-0.2,0.41l-9.52,7.04
		C256.67,208.97,256.56,209,256.46,209z M224.5,194.16l31.89,13.77l9.09-6.71c-0.16-12.12-0.45-30.14-0.58-31.35
		c-0.01-0.02-0.01-0.05-0.02-0.08c-0.09-0.6-0.55-1.17-1.25-1.54c-0.68-0.36-1.49-0.5-2.27-0.64c-0.18-0.03-0.32-0.15-0.38-0.32
		l-2.54-6.98c-10.43-4.01-25.92-9.92-27.28-10.32c-1.17,0.22-1.96,1.48-2.13,2.64c-0.2,1.34,0.19,2.65,1.13,3.8
		c0.12,0.14,0.15,0.34,0.07,0.51c-0.07,0.17-0.24,0.29-0.42,0.3c-1.49,0.1-2.92,0.79-3.93,1.88c-1.01,1.09-1.58,2.58-1.57,4.06
		L224.5,194.16z"></path><path class="st0" d="M256.4,207.06c-0.28,0-0.5-0.22-0.5-0.5c0,0,0-7.73,0.01-15.47c0.01-3.87,0.01-7.73,0.03-10.64
		c0.01-2.71,0.02-4.02,0.08-4.67c0-0.01-0.01-0.02-0.01-0.03l0.01,0c0-0.04,0.01-0.08,0.01-0.11l-0.04,0
		c-0.05-1.57,0.28-3.15,0.97-4.56c0.14-0.3,0.3-0.58,0.46-0.87c0.26-0.47,0.51-0.92,0.68-1.39c0.46-1.23,0.4-2.56,0.17-3.89
		c-0.13,0.26-0.29,0.52-0.49,0.75c-0.43,0.49-1.06,0.8-1.7,0.83c-0.48,0.03-0.91-0.11-1.25-0.37l-23.73-8.42
		c-0.26-0.09-0.4-0.38-0.3-0.64c0.09-0.26,0.38-0.4,0.64-0.3l23.81,8.45c0.06,0.02,0.12,0.06,0.17,0.1
		c0.19,0.17,0.44,0.19,0.61,0.19c0.36-0.02,0.76-0.22,1.01-0.5c0.5-0.57,0.67-1.42,0.82-2.17c0.04-0.23,0.24-0.4,0.48-0.4
		c0.24,0.02,0.44,0.15,0.5,0.38c0.53,2.08,0.98,4.28,0.21,6.35c-0.2,0.54-0.48,1.04-0.75,1.53c-0.15,0.27-0.3,0.55-0.44,0.83
		c-0.62,1.27-0.92,2.68-0.87,4.09c0,0.04,0,0.08-0.01,0.12c-0.07,1.27-0.09,22.61-0.09,30.83
		C256.9,206.83,256.67,207.06,256.4,207.06z"></path><path class="st0" d="M260.4,197.72c-0.28,0-0.5-0.22-0.5-0.5V173.2c0-0.28,0.22-0.5,0.5-0.5s0.5,0.22,0.5,0.5v24.02
		C260.9,197.49,260.68,197.72,260.4,197.72z"></path><path class="st0" d="M258.4,204.69c-0.07,0-0.13-0.01-0.2-0.04c-0.25-0.11-0.37-0.4-0.26-0.66l1.88-4.37
		c0.09-0.21,0.31-0.33,0.54-0.3l3.94,0.61c0.27,0.04,0.46,0.3,0.42,0.57s-0.29,0.46-0.57,0.42l-3.56-0.55l-1.73,4.01
		C258.78,204.58,258.59,204.69,258.4,204.69z"></path></g><g id="Cart"><polygon class="st3" points="190.85,272.42 106.72,302.06 106.72,360.95 202.66,403.22 269.64,373.3 269.64,322.1 	"></polygon><polygon class="st1" points="107.1,303.59 205.68,350.44 269.31,322.82 269.58,322.13 190.73,272.4 106.95,302.02 	"></polygon><path class="st2" d="M107,302.08l5.71-2.24c0,0-10.12-19.95-10.1-19.98c-0.16-0.71-0.2-1.47,0.09-2.13
		c0.29-0.66,0.95-1.2,1.68-1.16c0,0,70.34-22.28,70.41-22.3c0.48,0,0.98,0.03,1.4,0.25c0.62,0.32,1,0.95,1.47,1.47l8.18,18.11
		l4.88-1.84c0,0-10.08-22.63-10.17-22.75c-1.1-1.38-3.01-2.07-4.74-1.7c0,0-77.76,25.45-77.93,25.61c-1.02,0.42-1.81,1.38-2.03,2.46
		c-0.2,0.96,0.03,1.96,0.3,2.9L107,302.08z"></path><polygon class="st2" points="111.42,363.22 111.42,415.09 116.07,415.67 123.87,411.05 174.67,391.04 168.67,388.16 116.86,408.34 
		116.97,365.41 	"></polygon><path class="st2" d="M123.76,411l-8.35,4.56c0,0,99.76,15.82,100,15.63c0.97-0.1,1.97-0.2,2.86-0.61c1.02-0.46,1.86-1.31,2.3-2.34
		c0.44-1.03,0.49-2.22,0.12-3.28l-9.76-25.5l-4.52,2.34l7.71,22.96L123.76,411z"></path><path class="st0" d="M130.99,418.18c0.98,2.59,0.66,5.48,0.06,8.18c-0.43,1.92-0.99,3.83-1.95,5.54s-2.33,3.24-4.08,4.13
		c-1.75,0.89-3.9,1.08-5.69,0.27c-1.86-0.85-3.12-2.64-3.99-4.49c-2.39-5.08-2.38-11.23,0.03-16.31L130.99,418.18z"></path><path class="st0" d="M218.01,430.83c0.64,1.03,0.8,2.3,0.83,3.51c0.12,4.15-1.08,8.52-4.09,11.38c-0.85,0.81-1.84,1.49-2.97,1.82
		c-1.81,0.54-3.84,0.09-5.4-0.98c-1.56-1.07-2.67-2.72-3.3-4.5s-0.82-3.7-0.78-5.59c0.05-2.35,0.44-4.71,1.37-6.86l10.08,1.35
		l2.84,0.31L218.01,430.83z"></path><path class="st0" d="M172.41,392.2c-0.34,1.08-0.43,2.23-0.25,3.35c0.11,0.67,0.31,1.33,0.65,1.92c0.71,1.26,1.98,2.14,3.34,2.61
		c1.79,0.62,3.82,0.57,5.54-0.23c1.72-0.8,3.09-2.36,3.55-4.2l-10.33-4.74L172.41,392.2z"></path><path class="st0" d="M202.66,403.72c-0.07,0-0.14-0.01-0.2-0.04l-95.94-42.27c-0.18-0.08-0.3-0.26-0.3-0.46v-58.88
		c0-0.21,0.13-0.4,0.33-0.47l84.13-29.65c0.14-0.05,0.3-0.03,0.43,0.05l78.78,49.69c0.15,0.09,0.23,0.25,0.23,0.42v51.19
		c0,0.2-0.12,0.38-0.3,0.46l-66.98,29.92C202.8,403.7,202.73,403.72,202.66,403.72z M107.22,360.62l95.44,42.05l66.48-29.7v-50.59
		l-78.34-49.41l-83.57,29.45V360.62z"></path><path class="st0" d="M202.68,401.16c-0.01,0-0.02,0-0.03,0c-0.28-0.02-0.49-0.25-0.47-0.53l2.9-48.14
		c0.02-0.28,0.25-0.49,0.53-0.47c0.28,0.02,0.49,0.25,0.47,0.53l-2.9,48.14C203.17,400.95,202.95,401.16,202.68,401.16z"></path><path class="st0" d="M215.62,431.69c-0.44,0-0.89-0.04-1.34-0.12l0.01-0.06c-1.86-0.14-14.22-1.98-102.82-15.99
		c-0.24-0.04-0.42-0.25-0.42-0.49v-51.67c0-0.28,0.22-0.5,0.5-0.5s0.5,0.22,0.5,0.5v51.24c34.89,5.51,100.41,15.83,102.3,15.98
		c0.03,0,0.07,0,0.1,0.01c1.72,0.3,3.43-0.08,4.56-1.02c1.25-1.03,1.75-2.8,1.17-4.13l-9.69-25.37c-0.1-0.26,0.03-0.55,0.29-0.65
		c0.26-0.1,0.55,0.03,0.65,0.29l9.68,25.34c0.76,1.72,0.15,3.95-1.45,5.28C218.58,431.23,217.15,431.69,215.62,431.69z"></path><path class="st0" d="M214.21,425.39c-0.02,0-0.05,0-0.07-0.01l-90.63-13.53c-0.27-0.04-0.46-0.29-0.42-0.57
		c0.04-0.27,0.3-0.46,0.57-0.42l89.82,13.41l-7.35-22.13c-0.09-0.26,0.06-0.54,0.32-0.63c0.26-0.09,0.54,0.06,0.63,0.32l7.61,22.91
		c0.05,0.16,0.02,0.35-0.09,0.48C214.5,425.33,214.36,425.39,214.21,425.39z"></path><path class="st0" d="M122.07,412.26c-0.2,0-0.39-0.12-0.47-0.32c-0.1-0.26,0.03-0.55,0.28-0.65l52.21-20.42
		c0.26-0.1,0.55,0.03,0.65,0.28c0.1,0.26-0.03,0.55-0.28,0.65l-52.21,20.42C122.2,412.25,122.13,412.26,122.07,412.26z"></path><path class="st0" d="M116.89,408.91c-0.1,0-0.2-0.03-0.28-0.09c-0.14-0.09-0.22-0.25-0.22-0.41v-42.75c0-0.28,0.22-0.5,0.5-0.5
		s0.5,0.22,0.5,0.5v42.02l51.07-19.51c0.26-0.1,0.55,0.03,0.65,0.29c0.1,0.26-0.03,0.55-0.29,0.65l-51.75,19.77
		C117.01,408.9,116.95,408.91,116.89,408.91z"></path><path class="st0" d="M106.82,302.25c-0.19,0-0.37-0.11-0.45-0.29l-10.63-23.09c-0.54-1.18-0.56-2.55-0.04-3.74s1.53-2.11,2.77-2.51
		l77.26-25.21c2.23-0.73,4.63,0.34,5.59,2.48l9.85,22.03c0.11,0.25,0,0.55-0.25,0.66c-0.25,0.12-0.55,0-0.66-0.25l-9.85-22.03
		c-0.75-1.67-2.62-2.5-4.36-1.94l-77.26,25.21c-0.97,0.32-1.75,1.03-2.16,1.96s-0.4,2,0.03,2.92l10.63,23.09
		c0.12,0.25,0.01,0.55-0.25,0.66C106.96,302.23,106.89,302.25,106.82,302.25z"></path><path class="st0" d="M112.57,300.31c-0.18,0-0.36-0.1-0.45-0.28l-9.95-19.77c-0.39-0.78-0.43-1.7-0.08-2.51
		c0.34-0.81,1.02-1.42,1.86-1.69l70.35-22.12c1.43-0.45,2.98,0.24,3.61,1.6l8.34,18.09c0.12,0.25,0.01,0.55-0.24,0.66
		c-0.25,0.12-0.55,0.01-0.66-0.25l-8.34-18.09c-0.42-0.91-1.45-1.36-2.4-1.07l-70.35,22.12c-0.56,0.18-1.01,0.59-1.24,1.12
		c-0.23,0.54-0.21,1.15,0.06,1.67l9.95,19.77c0.12,0.25,0.02,0.55-0.22,0.67C112.72,300.29,112.64,300.31,112.57,300.31z"></path><path class="st4" d="M125.65,365.33C125.65,365.33,125.65,365.33,125.65,365.33c-0.28,0-0.5-0.22-0.5-0.5l0.1-47.32
		c0-0.28,0.22-0.5,0.5-0.5c0,0,0,0,0,0c0.28,0,0.5,0.22,0.5,0.5l-0.1,47.32C126.15,365.11,125.93,365.33,125.65,365.33z"></path><path class="st4" d="M139.32,371.65C139.32,371.65,139.31,371.65,139.32,371.65c-0.29,0-0.5-0.23-0.5-0.51l0.83-46.28
		c0-0.28,0.21-0.52,0.51-0.49c0.28,0,0.5,0.23,0.49,0.51l-0.83,46.28C139.81,371.43,139.59,371.65,139.32,371.65z"></path><path class="st4" d="M152.16,376.52C152.16,376.52,152.16,376.52,152.16,376.52c-0.28,0-0.5-0.23-0.5-0.5l0.41-45.14
		c0-0.27,0.23-0.5,0.5-0.5c0,0,0,0,0,0c0.28,0,0.5,0.23,0.5,0.5l-0.41,45.14C152.66,376.3,152.43,376.52,152.16,376.52z"></path><path class="st4" d="M168.21,383.25C168.2,383.25,168.2,383.25,168.21,383.25c-0.28,0-0.5-0.23-0.5-0.5l0.41-44.93
		c0-0.27,0.23-0.5,0.5-0.5c0,0,0,0,0,0c0.28,0,0.5,0.23,0.5,0.5l-0.41,44.93C168.7,383.02,168.48,383.25,168.21,383.25z"></path><path class="st4" d="M183.94,390.29c-0.28,0-0.5-0.22-0.5-0.5l-0.1-44c0-0.28,0.22-0.5,0.5-0.5c0,0,0,0,0,0
		c0.28,0,0.5,0.22,0.5,0.5l0.1,44C184.44,390.06,184.22,390.28,183.94,390.29C183.94,390.29,183.94,390.29,183.94,390.29z"></path><path class="st4" d="M196.78,360.98c-0.07,0-0.14-0.01-0.21-0.05l-83.14-38.83c-0.25-0.12-0.36-0.41-0.24-0.67
		c0.12-0.25,0.42-0.36,0.66-0.24l83.14,38.83c0.25,0.12,0.36,0.41,0.24,0.67C197.15,360.88,196.97,360.98,196.78,360.98z"></path><path class="st4" d="M195.33,372.79c-0.07,0-0.13-0.01-0.2-0.04l-82.41-36.13c-0.25-0.11-0.37-0.41-0.26-0.66
		c0.11-0.25,0.4-0.37,0.66-0.26l82.41,36.13c0.25,0.11,0.37,0.41,0.26,0.66C195.71,372.68,195.52,372.79,195.33,372.79z"></path><path class="st4" d="M194.19,385.63c-0.07,0-0.13-0.01-0.2-0.04l-80.76-35c-0.25-0.11-0.37-0.4-0.26-0.66
		c0.11-0.25,0.41-0.37,0.66-0.26l80.76,35c0.25,0.11,0.37,0.4,0.26,0.66C194.57,385.51,194.39,385.63,194.19,385.63z"></path><path class="st4" d="M221.94,389.66c-0.01,0-0.01,0-0.02,0c-0.28-0.01-0.49-0.25-0.48-0.52l1.76-42.45
		c0.01-0.28,0.26-0.48,0.52-0.48c0.28,0.01,0.49,0.25,0.48,0.52l-1.76,42.45C222.43,389.45,222.21,389.66,221.94,389.66z"></path><path class="st4" d="M238.2,381.8c0,0-0.01,0-0.01,0c-0.28-0.01-0.49-0.24-0.49-0.51l1.14-41.73c0.01-0.28,0.25-0.47,0.51-0.49
		c0.28,0.01,0.49,0.24,0.49,0.51l-1.14,41.73C238.69,381.58,238.47,381.8,238.2,381.8z"></path><path class="st4" d="M253.31,376.1C253.31,376.1,253.31,376.1,253.31,376.1c-0.28,0-0.5-0.23-0.5-0.51l0.52-41.52
		c0-0.27,0.23-0.49,0.5-0.49c0,0,0,0,0.01,0c0.28,0,0.5,0.23,0.49,0.51l-0.52,41.52C253.81,375.88,253.59,376.1,253.31,376.1z"></path><path class="st4" d="M212.31,360.36c-0.19,0-0.38-0.12-0.46-0.31c-0.11-0.25,0.01-0.55,0.27-0.66l49.9-21.02
		c0.26-0.1,0.55,0.01,0.66,0.27c0.11,0.25-0.01,0.55-0.27,0.66l-49.9,21.02C212.44,360.35,212.38,360.36,212.31,360.36z"></path><path class="st4" d="M212.42,374.03c-0.2,0-0.38-0.12-0.46-0.31c-0.11-0.25,0.01-0.55,0.27-0.65l49.8-20.81
		c0.25-0.11,0.55,0.01,0.65,0.27c0.11,0.25-0.01,0.55-0.27,0.65l-49.8,20.81C212.55,374.02,212.48,374.03,212.42,374.03z"></path><path class="st4" d="M212.62,385.73c-0.19,0-0.38-0.11-0.46-0.31c-0.11-0.25,0.01-0.55,0.27-0.66l49.08-20.71
		c0.25-0.1,0.55,0.01,0.66,0.27c0.11,0.25-0.01,0.55-0.27,0.66l-49.08,20.71C212.75,385.72,212.69,385.73,212.62,385.73z"></path><path class="st4" d="M122.11,431.11c-0.96,0-1.94-0.55-2.55-1.48c-0.63-0.95-0.8-2.07-0.88-2.94c-0.19-2.11,0.07-4.29,0.74-6.3
		c0.09-0.26,0.37-0.4,0.63-0.32c0.26,0.09,0.4,0.37,0.32,0.63c-0.63,1.88-0.87,3.92-0.69,5.89c0.07,0.75,0.21,1.72,0.72,2.48
		c0.39,0.59,1.14,1.13,1.92,1.02c1.06-0.15,1.72-1.36,2.08-2.35c0.99-2.71,1.23-5.63,0.7-8.46c-0.05-0.27,0.13-0.53,0.4-0.58
		c0.27-0.05,0.53,0.13,0.58,0.4c0.57,3.01,0.31,6.12-0.74,8.99c-0.66,1.79-1.65,2.83-2.88,3
		C122.34,431.11,122.22,431.11,122.11,431.11z"></path><path class="st4" d="M210.06,441.24c-0.38,0-0.76-0.07-1.1-0.21c-0.89-0.35-1.61-1.16-1.98-2.22c-0.31-0.9-0.35-1.87-0.34-2.77
		c0.01-1.11,0.1-2.27,0.68-3.24c0.14-0.24,0.45-0.32,0.69-0.17c0.24,0.14,0.31,0.45,0.17,0.69c-0.48,0.81-0.53,1.83-0.54,2.73
		c-0.01,0.95,0.04,1.72,0.29,2.44c0.27,0.79,0.78,1.38,1.4,1.62c0.54,0.21,1.22,0.17,1.82-0.12c0.55-0.26,1.06-0.73,1.47-1.35
		c1.05-1.59,1.2-3.65,1.33-5.47c0.02-0.28,0.26-0.49,0.53-0.46c0.28,0.02,0.48,0.26,0.46,0.54c-0.13,1.84-0.3,4.14-1.49,5.95
		c-0.51,0.77-1.15,1.36-1.87,1.7C211.08,441.12,210.56,441.24,210.06,441.24z"></path><path class="st4" d="M177.58,395.83c-0.15,0-0.29-0.02-0.44-0.05c-0.61-0.14-1.14-0.61-1.4-1.23c-0.23-0.54-0.24-1.17-0.05-1.77
		c0.08-0.26,0.36-0.41,0.63-0.32c0.26,0.08,0.41,0.37,0.32,0.63c-0.12,0.37-0.11,0.77,0.02,1.08c0.13,0.32,0.41,0.57,0.71,0.64
		c0.57,0.13,1.21-0.3,1.77-0.72c0.22-0.17,0.53-0.12,0.7,0.1c0.17,0.22,0.12,0.53-0.1,0.7
		C179.28,395.22,178.48,395.83,177.58,395.83z"></path><path class="st4" d="M217.44,342.73c-0.15,0-0.31-0.03-0.45-0.11l-27.47-13.89c-0.34-0.17-0.55-0.52-0.55-0.9l0.2-51.54
		c0-0.55,0.45-1,1-1c0,0,0,0,0,0c0.55,0,1,0.45,1,1l-0.2,50.92l26.92,13.61c0.49,0.25,0.69,0.85,0.44,1.34
		C218.16,342.53,217.81,342.73,217.44,342.73z"></path><path class="st4" d="M174.29,334.27c-0.41,0-0.8-0.26-0.94-0.67c-0.18-0.52,0.09-1.09,0.61-1.28l15.48-5.48
		c0.52-0.19,1.09,0.09,1.28,0.61c0.18,0.52-0.09,1.09-0.61,1.28l-15.48,5.48C174.51,334.25,174.4,334.27,174.29,334.27z"></path></g><g><path class="st3" d="M98.98,158.29c-1.07,2.77-1.22,5.83-0.87,8.78c0.35,2.95,1.19,5.82,2.05,8.61c-0.43-0.33-0.88-0.64-1.35-0.91
		c-0.16-0.09-0.33-0.18-0.51-0.16c-0.15,0.02-0.28,0.11-0.41,0.19c-0.79,0.49-1.78,0.65-2.83,0.29c-0.81-1.28-1.36-2.71-1.62-4.2
		c-0.36,1.33-0.53,2.71-0.51,4.09c-1.78-0.36-3.49-1.04-5.04-2c-0.2-0.12-0.4-0.26-0.53-0.46c-0.25-0.39-0.14-0.93-0.34-1.36
		c-0.34-0.77-1.55-1.03-1.42-2.49c1.71-3.57,2.55-7.48,3.26-11.37c0.69-3.79,1.27-7.72,0.41-11.81c-0.18-0.62-0.08-1.32,0.27-1.87
		c0.17-0.26,0.38-0.49,0.54-0.76c0.43-0.75,0.3-1.69,0.48-2.54c0.19-0.92,0.74-1.71,1.27-2.48c0.6-0.87,1.23-1.77,2.14-2.32
		c0.7-0.43,1.52-0.62,2.33-0.76c2.81-0.49,5.7-0.5,8.5-0.03c1.6,0.27,3.21,0.69,4.82,0.51c0.9-0.1,1.78-0.39,2.68-0.52
		c0.9-0.13,1.88-0.08,2.85,0.4c1.44,0.11,2.72,1.07,3.54,2.26c0.82,1.19,1.25,2.61,1.61,4.01c0.52,2.07,0.9,4.24,0.46,6.33
		c-0.21,0.99-0.6,1.92-0.87,2.9c-0.82,2.99-0.44,6.26,0.93,9.05s3.66,5.07,6.38,6.55c-0.98,0.7-1.97,1.4-2.95,2.1
		c-0.13,0.09-0.27,0.2-0.34,0.35c-0.09,0.21-0.03,0.45-0.07,0.67c-0.08,0.39-0.49,0.64-0.89,0.68c-0.4,0.04-0.8-0.07-1.19-0.13
		c-1.17-0.17-2.39,0.12-3.36,0.8c-0.25-1.1-0.51-2.2-0.76-3.31c-0.15-0.67-0.33-1.38-0.85-1.83c-0.37-0.32-0.9-0.49-1.11-0.93
		c-0.11-0.23-0.11-0.5-0.1-0.76c0.13-2.51,1.27-4.93,1.04-7.43c-0.24-2.55-1.98-4.86-4.31-5.94c-2.32-1.07-5.13-0.94-7.42,0.21
		C102.58,151.87,100.68,153.9,98.98,158.29z"></path><path class="st1" d="M97.65,180.79c0.02-1.66,0.04-3.32,0.06-4.99c0-0.28,0.01-0.59,0.19-0.82c0.27-0.36,0.83-0.35,1.25-0.18
		c0.42,0.17,0.8,0.45,1.4,0.47c2.98,0.87,6.11,1.2,9.2,0.97c0.87-0.07,1.76-0.17,2.6,0.05c0.38,0.1,0.79,0.35,0.79,0.74
		c0,0.27-0.21,0.53-0.13,0.78c1.4-0.05,2.8-0.11,4.2-0.16c0,0,11.56-1.05,11.65-0.98c1.7,0.12,3.15,1.23,4.44,2.35
		c2.65,2.29,5.27,5,5.95,8.44l3.97,33.92c0,0,16.64,22.28,16.78,22.34c0.44,0.74,0.61,1.64,0.45,2.48
		c-2.07-0.61-4.31,0.16-6.14,1.31c-1.67,1.04-3.28,2.72-3.07,4.68c0.08,0.71,0.32,1.6-0.26,2.02c-0.33,0.24-0.78,0.18-1.17,0.06
		c-0.63-0.2-1.21-0.55-1.69-1.01c0,0-15.64-24.8-15.81-24.85c-12.85,7.08-28.53,9.65-42.13,4.7c0.02-4.28-1.18-8.55-3.43-12.19
		l-2.67,18.22l8.27,5.39c0,0,22.77,12.94,22.97,13.02c1.37,1.28,1.72,3.52,0.6,5.31c-1.54-1.49-3.79-2.09-5.92-1.93
		c-2.13,0.16-4.16,1.03-6,2.13c-1.4,0.84-2.87,2.19-2.59,3.8c0.12,0.69,0.49,1.57-0.09,1.96c-0.15,0.1-0.33,0.13-0.51,0.16
		c-0.96,0.12-1.94,0.05-2.86-0.23c0,0-26.91-15.45-26.88-15.65c-2.27-1.4-3.74-3.86-4.41-6.44c-0.67-2.58-0.6-5.3-0.35-7.95
		c0,0,6.66-42.96,6.84-43.12c1.15-3.59,4.04-6.59,7.59-7.87L97.65,180.79z"></path><path class="st0" d="M104.91,251.14c4.22,0.67,8.55-0.07,12.66-1.23c5.62-1.58,11.08-3.99,15.65-7.64
		c0.17-0.14,0.34-0.28,0.46-0.46c0.34-0.54,0.1-1.24-0.08-2.02c0.68,0.38,1.38,0.78,1.81,1.42c0.48,0.7,0.57,1.58,0.89,2.36
		l3.09,15.87c0,0-20.41,6.86-20.52,6.87c-0.54-1.26-2.17-1.91-2.43-3.26c-0.17-0.87,0.3-1.72,0.34-2.6c0.05-1.18-0.68-2.27-1.6-3
		c-0.93-0.73-2.04-1.16-3.12-1.64C109.61,254.69,107.3,253.22,104.91,251.14z"></path><path class="st4" d="M114.28,142.62c0.92,0.77,1.55,1.82,1.99,2.93s0.71,2.28,0.99,3.44c0.01,0.06,0.03,0.12,0.08,0.16
		c0.06,0.04,0.13,0.04,0.2,0.03c0.89-0.05,1.79,0.52,2.12,1.35l0.43,4.82l-0.37,6.98l2.7,2.76c0,0-2.64,0.06-2.82,0
		c-0.47,2.86-1.2,5.68-2.17,8.42c-0.36,1.01-0.82,2.09-1.77,2.58c-0.74,0.38-1.63,0.3-2.45,0.14c-0.82-0.17-1.63-0.42-2.63-0.27
		c-0.3,0.8-1.05,1.37-1.87,1.65c-0.81,0.27-1.69,0.3-2.54,0.29c-1.11,0-2.23-0.04-3.29-0.34c-1.07-0.3-2.08-0.88-2.67-2.15
		c-1.96-5.5-2.52-11.5-1.58-17.51c-1.04-1.7-1.34-3.84-0.8-5.75c0.09-0.33,0.23-0.67,0.51-0.8c2.55-0.48,5.14-0.98,7.48-2.1
		C108.98,147.74,111.5,145.18,114.28,142.62z"></path><path class="st4" d="M92.68,234.38c6.5,2.13,13.56,2.15,20.27,0.85s13.12-3.87,19.44-6.48c-0.61,4.4-0.1,8.95,1.42,13
		c-3.77,3.73-8.63,6.25-13.73,7.72s-10.45,1.91-15.75,1.86c0,0-12.21-6.84-12.11-7.22C93.25,241.11,93.4,237.83,92.68,234.38z"></path><path class="st4" d="M151.43,255.14c1.08,0.27,2.3,0.09,3.23,0.7c0.48,0.32,0.82,0.81,1.09,1.32c0.3,0.56,0.55,1.18,0.5,1.82
		c-0.06,0.81-0.64,1.56-1.41,2.01c1.14,1.71,3.42,2.88,5.29,2.02c0.97-0.44,1.72-1.37,2.77-1.54c0.74-0.12,1.57,0.14,2.19-0.28
		c0.47-0.32,0.65-0.97,1.14-1.27c0.51-0.32,1.2-0.17,1.72-0.45c0.48-0.27,0.71-0.83,0.88-1.36c0.39-1.2,0.69-2.46,0.55-3.71
		c-0.2-1.77-1.29-3.34-2.65-4.49s-2.98-1.94-4.58-2.71c-1.11-0.53-2.21-1.07-3.34-1.55c-1.92,0.65-3.73,1.59-5.36,2.79
		c-0.91,0.67-1.79,1.44-2.35,2.42L151.43,255.14z"></path><path class="st4" d="M101.71,265.53c-0.39,1.21-0.03,2.52,0.36,3.73c0.26,0.81,0.69,1.75,1.54,1.84c0.9,0.09,1.69-0.91,2.57-0.69
		c0.44,0.11,0.75,0.5,0.96,0.9c0.49,0.95,0.6,2.06,0.47,3.12c-0.09,0.73-0.29,1.52,0.07,2.17c0.43,0.78,1.54,0.97,2.36,0.62
		c0.32-0.14,0.63-0.35,0.99-0.36c0.33,0,0.64,0.18,0.97,0.21c0.9,0.1,1.6-0.84,2.5-0.96c0.68-0.09,1.41,0.32,2.04,0.05
		c0.31-0.13,0.53-0.39,0.8-0.59c0.52-0.38,1.19-0.49,1.81-0.69s1.25-0.58,1.42-1.21c0.07-0.27,0.05-0.56,0.02-0.84
		c-0.27-2.45-0.83-4.91-2.08-7.03c-1.25-2.12-3.26-3.88-5.66-4.42c-1.95-0.44-4.02-0.05-5.87,0.72
		C105.1,262.88,103.44,264.02,101.71,265.53z"></path><ellipse class="st0" cx="109.46" cy="155.64" rx="1" ry="1.88"></ellipse><ellipse class="st0" cx="117.4" cy="154.09" rx="1" ry="1.88"></ellipse><path class="st0" d="M109.1,277.94c-0.33,0-0.67-0.07-0.98-0.2c-0.66-0.29-1.12-0.83-1.26-1.5c-0.02-0.1-0.01-0.21,0.03-0.3
		c0.58-1.36,0.55-2.96-0.09-4.29c-0.1-0.2-0.35-0.65-0.77-0.81c-0.69,0.46-1.49,0.88-2.36,0.68c-0.57-0.14-1.1-0.55-1.55-1.21
		c-0.83-1.22-1.17-2.7-1.07-4.65c0.01-0.09,0.04-0.18,0.09-0.26c1.1-1.58,2.83-2.55,4.04-3.15c3.1-1.53,5.88-1.95,8.24-1.26
		c2.3,0.67,4.38,2.51,5.71,5.06c1.02,1.94,1.66,4.3,1.97,7.21c-0.08,1.13-0.95,2.03-1.99,2.13c-0.11,0.01-0.22,0.01-0.34,0.01
		c-0.11,0-0.23,0-0.34,0.02c-0.27,0.05-0.54,0.29-0.83,0.53c-0.43,0.37-0.92,0.79-1.61,0.75c-0.31-0.02-0.56-0.13-0.79-0.23
		c-0.17-0.07-0.33-0.14-0.46-0.15c-0.3-0.04-0.61,0.24-0.95,0.51c-0.45,0.36-1,0.81-1.73,0.71c-0.24-0.04-0.45-0.13-0.63-0.22
		c-0.16-0.07-0.31-0.14-0.4-0.13c-0.12,0.01-0.28,0.12-0.45,0.24c-0.08,0.06-0.17,0.12-0.26,0.17
		C109.96,277.82,109.53,277.94,109.1,277.94z M107.87,276.17c0.13,0.38,0.45,0.57,0.64,0.65c0.43,0.18,0.92,0.15,1.29-0.07
		c0.07-0.04,0.14-0.09,0.2-0.14c0.25-0.18,0.56-0.39,0.97-0.41c0.34-0.02,0.64,0.12,0.87,0.22c0.13,0.06,0.26,0.12,0.36,0.13
		c0.27,0.05,0.54-0.16,0.95-0.5c0.45-0.36,0.96-0.78,1.64-0.73c0.3,0.02,0.56,0.13,0.79,0.23c0.17,0.07,0.33,0.14,0.46,0.15
		c0.29,0,0.57-0.23,0.9-0.51c0.35-0.3,0.75-0.64,1.28-0.75c0.17-0.03,0.35-0.04,0.53-0.04c0.08,0,0.17,0,0.25-0.01
		c0.55-0.05,1.05-0.56,1.09-1.12c-0.29-2.69-0.9-4.93-1.86-6.76c-1.21-2.3-3.07-3.97-5.11-4.56c-2.12-0.62-4.65-0.21-7.52,1.2
		c-1.08,0.53-2.61,1.38-3.58,2.71c-0.07,1.65,0.22,2.88,0.9,3.89c0.31,0.46,0.63,0.73,0.96,0.8c0.55,0.13,1.17-0.25,1.75-0.65
		c0.1-0.07,0.24-0.1,0.36-0.08c0.69,0.11,1.31,0.62,1.69,1.41C108.43,272.75,108.49,274.59,107.87,276.17z"></path><path class="st0" d="M158.56,263.67c-1.76,0-3.51-1.02-4.34-2.72c-0.06-0.13-0.07-0.27-0.01-0.41c0.05-0.13,0.16-0.23,0.29-0.28
		c0.57-0.21,1.15-0.46,1.35-0.9c0.08-0.17,0.11-0.4,0.09-0.69c-0.07-0.92-0.57-1.81-1.32-2.34c-0.78-0.54-1.81-0.7-2.98-0.45
		c-0.13,0.02-0.27,0-0.38-0.07c-0.11-0.07-0.19-0.19-0.21-0.32c-0.29-1.51-0.42-3.01-0.37-4.58c0-0.09,0.03-0.17,0.07-0.25
		c1.79-2.91,4.79-4.84,8.22-5.29c0.06-0.01,0.13,0,0.19,0.01c2.2,0.57,4.25,1.52,6.11,2.82c1.84,1.29,3.16,2.74,3.91,4.31
		c0.87,1.8,1.01,3.86,0.41,5.64c-0.31,0.92-0.8,1.5-1.45,1.72c-0.22,0.08-0.44,0.1-0.63,0.12c-0.17,0.02-0.33,0.04-0.45,0.09
		c-0.23,0.09-0.42,0.31-0.64,0.57c-0.25,0.29-0.52,0.62-0.93,0.81c-0.48,0.23-0.99,0.21-1.43,0.19c-0.2-0.01-0.4-0.02-0.6,0
		c-0.64,0.06-1.22,0.45-1.83,0.87c-0.37,0.25-0.75,0.51-1.17,0.71C159.85,263.53,159.2,263.67,158.56,263.67z M155.39,260.98
		c1.02,1.48,3.06,2.12,4.63,1.35c0.35-0.17,0.68-0.4,1.04-0.64c0.69-0.47,1.4-0.95,2.29-1.04c0.24-0.02,0.49-0.01,0.74,0
		c0.38,0.02,0.7,0.03,0.95-0.09c0.21-0.1,0.4-0.33,0.6-0.56c0.27-0.32,0.57-0.67,1.04-0.86c0.24-0.09,0.48-0.12,0.7-0.15
		c0.16-0.02,0.3-0.04,0.42-0.08c0.43-0.15,0.69-0.68,0.83-1.1c0.52-1.53,0.39-3.31-0.36-4.88c-0.68-1.41-1.88-2.73-3.58-3.92
		c-1.73-1.21-3.65-2.11-5.69-2.65c-3.05,0.43-5.71,2.13-7.33,4.7c-0.03,1.28,0.06,2.51,0.27,3.75c1.25-0.16,2.36,0.07,3.25,0.7
		c1.01,0.71,1.66,1.86,1.75,3.09c0.03,0.46-0.02,0.85-0.17,1.18C156.48,260.4,155.9,260.75,155.39,260.98z"></path><path class="st0" d="M119.74,162.65c-0.02,0-0.03,0-0.05,0c-0.27-0.03-0.48-0.27-0.45-0.55c0.41-4.07,0.38-8.2-0.09-12.27
		c-0.03-0.27,0.16-0.52,0.44-0.55c0.28-0.03,0.52,0.17,0.55,0.44c0.48,4.14,0.51,8.34,0.09,12.49
		C120.21,162.46,119.99,162.65,119.74,162.65z"></path><path class="st0" d="M124.07,166.56c-0.05,0-0.09-0.01-0.14-0.02l-11.34-3.28c-0.27-0.08-0.42-0.35-0.34-0.62
		c0.08-0.26,0.35-0.42,0.62-0.34l8.32,2.41c-3.67-2.95-6.32-7.17-7.29-11.79c-0.06-0.27,0.12-0.54,0.39-0.59
		c0.27-0.06,0.53,0.12,0.59,0.39c1.13,5.38,4.66,10.2,9.44,12.91c0.22,0.12,0.31,0.4,0.21,0.63
		C124.45,166.45,124.27,166.56,124.07,166.56z"></path><path class="st0" d="M113.76,176.92c-0.7,0-1.38-0.1-1.95-0.22c-3.19-0.62-6.22-1.78-9.02-3.44c-0.24-0.14-0.32-0.45-0.17-0.69
		c0.14-0.24,0.45-0.32,0.69-0.17c2.69,1.6,5.62,2.72,8.7,3.31c1.19,0.23,2.89,0.43,3.96-0.47c0.6-0.51,0.94-1.33,1.21-2.07
		c0.96-2.59,1.59-5.29,1.88-8.04c0.03-0.28,0.27-0.48,0.55-0.44c0.27,0.03,0.47,0.28,0.44,0.55c-0.3,2.83-0.95,5.61-1.94,8.28
		c-0.32,0.85-0.72,1.82-1.51,2.48C115.78,176.71,114.75,176.92,113.76,176.92z"></path><path class="st0" d="M109.88,169.86c-0.15,0-0.3-0.07-0.4-0.2c-0.44-0.58-0.99-1.45-0.65-2.35c0.2-0.54,0.71-0.96,1.35-1.12
		c0.51-0.13,1.04-0.09,1.52-0.02c0.94,0.13,1.88,0.34,2.78,0.64c0.26,0.09,0.4,0.37,0.32,0.63c-0.09,0.26-0.37,0.4-0.63,0.32
		c-0.84-0.28-1.71-0.48-2.6-0.6c-0.45-0.06-0.81-0.08-1.14,0c-0.32,0.08-0.57,0.27-0.66,0.5c-0.12,0.33,0.04,0.78,0.51,1.39
		c0.17,0.22,0.13,0.53-0.09,0.7C110.09,169.83,109.98,169.86,109.88,169.86z"></path><path class="st0" d="M115.97,152.05c-0.16,0-0.32-0.08-0.42-0.23c-0.15-0.23-0.09-0.54,0.14-0.69c0.35-0.23,0.72-0.48,1.14-0.65
		c0.51-0.21,1.03-0.27,1.48-0.17c0.27,0.06,0.44,0.32,0.39,0.59c-0.06,0.27-0.32,0.44-0.59,0.39c-0.33-0.07-0.67,0.03-0.9,0.12
		c-0.33,0.13-0.64,0.34-0.97,0.56C116.16,152.02,116.07,152.05,115.97,152.05z"></path><path class="st0" d="M111.37,153.06c-0.07,0-0.15-0.02-0.22-0.05c-1.36-0.65-3.01-0.73-4.43-0.2c-0.26,0.1-0.55-0.03-0.64-0.29
		c-0.1-0.26,0.03-0.55,0.29-0.64c1.66-0.63,3.61-0.54,5.21,0.23c0.25,0.12,0.35,0.42,0.23,0.67
		C111.74,152.96,111.56,153.06,111.37,153.06z"></path><path class="st0" d="M109.69,151.1c-0.14,0-0.28-0.06-0.38-0.18c-0.18-0.21-0.15-0.53,0.06-0.7c2.39-2.01,3.96-4.94,4.3-8.04
		c0.02-0.19,0.15-0.36,0.34-0.42c0.19-0.06,0.39-0.01,0.52,0.13c1.67,1.77,2.82,4.18,3.25,6.8c0.84-0.08,1.62,0.23,2.14,0.81
		c0.19,0.2,0.17,0.52-0.03,0.71c-0.2,0.19-0.52,0.17-0.71-0.03c-0.34-0.37-0.87-0.56-1.36-0.48c-0.14,0.02-0.35,0.06-0.57-0.05
		c-0.36-0.18-0.42-0.56-0.44-0.7c-0.33-2.08-1.14-4.01-2.32-5.55c-0.59,2.94-2.19,5.66-4.48,7.59
		C109.92,151.06,109.8,151.1,109.69,151.1z"></path><path class="st0" d="M96.38,152.12c-0.26,0-0.48-0.2-0.5-0.46c-0.02-0.28,0.19-0.51,0.46-0.53c6.68-0.49,13.14-3.91,17.3-9.16
		c0.17-0.22,0.49-0.25,0.7-0.08c0.22,0.17,0.25,0.49,0.08,0.7c-4.32,5.47-11.06,9.03-18.01,9.54
		C96.4,152.12,96.39,152.12,96.38,152.12z"></path><path class="st0" d="M100.29,158.99c-0.85,0-1.71-0.47-2.26-1.24c-0.47-0.66-0.73-1.5-0.79-2.56c-0.08-1.31,0.15-2.65,0.66-3.86
		c0.11-0.26,0.4-0.37,0.65-0.27c0.25,0.11,0.37,0.4,0.27,0.65c-0.45,1.07-0.65,2.25-0.59,3.42c0.05,0.87,0.25,1.54,0.61,2.04
		c0.4,0.56,1.05,0.89,1.61,0.81c0.27-0.03,0.52,0.16,0.56,0.43c0.04,0.27-0.16,0.53-0.43,0.56
		C100.49,158.98,100.39,158.99,100.29,158.99z"></path><path class="st0" d="M100.54,176.47c-0.1,0-0.2-0.03-0.29-0.09l-1.86-1.31c-0.03,0.03-0.06,0.06-0.1,0.09
		c-0.23,0.15-0.54,0.09-0.69-0.14c-0.13-0.19-0.14-0.44-0.04-0.65c0.11-0.23,0.35-0.4,0.61-0.42c0.33-0.03,0.57,0.15,0.71,0.24
		l0.63,0.44c-0.99-2.85-1.63-5.82-1.9-8.83c-0.29-3.3-0.02-5.83,0.87-7.98c0.11-0.26,0.4-0.38,0.65-0.27
		c0.26,0.11,0.38,0.4,0.27,0.65c-0.82,2-1.08,4.38-0.8,7.51c0.31,3.46,1.12,6.85,2.4,10.07c0.08,0.21,0.02,0.44-0.15,0.58
		C100.76,176.43,100.65,176.47,100.54,176.47z"></path><path class="st0" d="M106.96,178.68c-0.29,0-0.58-0.01-0.85-0.03c-1.42-0.1-2.83-0.35-4.19-0.75c-0.27-0.08-0.42-0.36-0.34-0.62
		c0.08-0.26,0.36-0.42,0.62-0.34c1.29,0.38,2.63,0.62,3.98,0.71c0.72,0.05,1.56,0.07,2.31-0.18c0.74-0.24,1.31-0.73,1.53-1.31
		c0.1-0.26,0.39-0.39,0.64-0.29c0.26,0.1,0.39,0.39,0.29,0.64c-0.33,0.86-1.13,1.57-2.15,1.91
		C108.19,178.62,107.56,178.68,106.96,178.68z"></path><path class="st0" d="M106,183.63c-1.84,0-3.84-0.3-6.08-0.92c-0.27-0.07-0.42-0.35-0.35-0.61c0.07-0.27,0.35-0.42,0.61-0.35
		c2.38,0.65,4.46,0.94,6.35,0.87c2.17-0.08,4.16-0.63,5.77-1.59c0.01-1.23,0-2.19-0.01-3.14l0.5-0.06l0.5-0.01l-0.5,0.01l0.5,0.05
		c0.01,1.03,0.02,2.06,0.01,3.44c0,0.17-0.09,0.32-0.23,0.42c-1.8,1.15-4.05,1.81-6.5,1.89C106.37,183.62,106.19,183.63,106,183.63z
		 M112.79,181.3L112.79,181.3L112.79,181.3z"></path><path class="st0" d="M116.1,262.81c-0.07,0-0.14-0.01-0.21-0.05c-0.25-0.12-0.36-0.41-0.24-0.66c0.58-1.27,0.36-2.89-0.54-3.96
		c-0.64-0.4-6.93-3.98-11.11-6.36l-12.07-6.77c-0.2-0.11-0.29-0.34-0.24-0.56c0.81-3.28,0.86-6.75,0.15-10.05
		c-0.04-0.17,0.02-0.35,0.14-0.46c0.12-0.12,0.3-0.17,0.47-0.12c13.78,3.49,28.45,1.17,40.3-6.38c0.28-3.05,0.62-6.47,2.02-9.46
		c0.41-0.89,0.92-1.73,1.41-2.55c0.34-0.58,0.69-1.15,1-1.74c0.94-1.78,1.49-3.51,1.64-5.15c0.3-3.39-1.09-6.69-2.33-9.18
		c-1.92-3.85-4.36-7.49-6.71-11.01c-0.15-0.23-0.09-0.54,0.14-0.69c0.23-0.15,0.54-0.09,0.69,0.14c2.38,3.54,4.83,7.21,6.78,11.12
		c1.3,2.61,2.75,6.06,2.43,9.71c-0.16,1.77-0.74,3.64-1.75,5.53c-0.32,0.61-0.67,1.2-1.03,1.79c-0.47,0.79-0.96,1.62-1.36,2.46
		c-1.36,2.91-1.66,6.19-1.95,9.37c-0.01,0.15-0.1,0.29-0.23,0.38c-11.9,7.66-26.62,10.13-40.53,6.83c0.55,3.09,0.47,6.3-0.22,9.35
		l11.75,6.58c9.47,5.38,11.02,6.26,11.33,6.53l0.01-0.01c1.19,1.36,1.49,3.45,0.73,5.08C116.47,262.7,116.29,262.81,116.1,262.81z
		 M133.22,227.73L133.22,227.73L133.22,227.73z"></path><path class="st0" d="M104.46,251.83c-0.27,0-0.5-0.22-0.5-0.49c0-0.28,0.22-0.5,0.49-0.51c6.28-0.09,11.23-0.69,15.59-1.89
		c5.47-1.51,9.95-3.98,13.33-7.36c-1.58-4.03-2.14-8.43-1.62-12.73c0.03-0.27,0.28-0.47,0.56-0.44c0.27,0.03,0.47,0.28,0.44,0.56
		c-0.51,4.24,0.07,8.58,1.68,12.54c0.07,0.18,0.03,0.39-0.1,0.54c-3.53,3.63-8.24,6.27-14.01,7.86
		C115.86,251.13,110.83,251.74,104.46,251.83C104.46,251.83,104.46,251.83,104.46,251.83z"></path><path class="st0" d="M86.9,221.5c-0.03,0-0.05,0-0.08-0.01c-0.27-0.04-0.46-0.3-0.41-0.58l2.1-12.68c0.04-0.27,0.3-0.46,0.58-0.41
		c0.27,0.04,0.46,0.3,0.41,0.58l-2.1,12.68C87.35,221.33,87.14,221.5,86.9,221.5z"></path><path class="st0" d="M80.2,240.31c-0.11,0-0.21-0.03-0.31-0.1c-0.22-0.17-0.26-0.48-0.09-0.7c0.97-1.24,2.9-1.58,4.23-0.74
		c0.23,0.15,0.3,0.46,0.15,0.69s-0.46,0.3-0.69,0.15c-0.9-0.57-2.25-0.33-2.9,0.51C80.5,240.24,80.35,240.31,80.2,240.31z"></path></g></svg>